<svg width="18" height="17" viewBox="0 0 18 17" fill="none" xmlns="http://www.w3.org/2000/svg">
<path d="M5.67997 13.194C5.35778 13.194 5.04283 13.2895 4.77495 13.4685C4.50706 13.6475 4.29826 13.902 4.17497 14.1996C4.05167 14.4973 4.01941 14.8248 4.08227 15.1408C4.14512 15.4568 4.30027 15.7471 4.52809 15.9749C4.75591 16.2027 5.04617 16.3579 5.36217 16.4207C5.67816 16.4836 6.0057 16.4513 6.30336 16.328C6.60102 16.2047 6.85544 15.9959 7.03443 15.728C7.21343 15.4601 7.30897 15.1452 7.30897 14.823C7.3099 14.6088 7.26839 14.3966 7.18686 14.1985C7.10532 14.0005 6.98536 13.8205 6.83391 13.6691C6.68246 13.5176 6.50251 13.3977 6.30445 13.3161C6.1064 13.2346 5.89415 13.1931 5.67997 13.194ZM0.792969 0.161011V1.79001H2.42197L5.34997 7.96801L4.24997 9.96801C4.11918 10.2094 4.05045 10.4795 4.04997 10.754C4.04997 10.9679 4.0921 11.1798 4.17397 11.3774C4.25583 11.575 4.37583 11.7546 4.52709 11.9059C4.67836 12.0572 4.85794 12.1771 5.05558 12.259C5.25322 12.3409 5.46504 12.383 5.67897 12.383H15.454V10.75H6.02697C5.97393 10.75 5.92305 10.7289 5.88555 10.6914C5.84804 10.6539 5.82697 10.6031 5.82697 10.55C5.82578 10.5151 5.83407 10.4806 5.85097 10.45L6.57997 9.12201H12.648C12.9387 9.12156 13.2239 9.04357 13.4744 8.89608C13.7249 8.7486 13.9315 8.53697 14.073 8.28301L16.985 2.99701C17.0517 2.87759 17.0862 2.74282 17.085 2.60601C17.0851 2.49895 17.0641 2.39291 17.0232 2.29397C16.9823 2.19503 16.9223 2.10513 16.8466 2.02943C16.7709 1.95372 16.681 1.89369 16.582 1.85278C16.4831 1.81187 16.377 1.79088 16.27 1.79101H4.22597L3.45297 0.161011H0.792969ZM13.826 13.194C13.5038 13.194 13.1888 13.2895 12.9209 13.4685C12.6531 13.6475 12.4443 13.902 12.321 14.1996C12.1977 14.4973 12.1654 14.8248 12.2283 15.1408C12.2911 15.4568 12.4463 15.7471 12.6741 15.9749C12.9019 16.2027 13.1922 16.3579 13.5082 16.4207C13.8242 16.4836 14.1517 16.4513 14.4494 16.328C14.747 16.2047 15.0014 15.9959 15.1804 15.728C15.3594 15.4601 15.455 15.1452 15.455 14.823C15.4559 14.6088 15.4144 14.3966 15.3329 14.1985C15.2513 14.0005 15.1314 13.8205 14.9799 13.6691C14.8285 13.5176 14.6485 13.3977 14.4505 13.3161C14.2524 13.2346 14.0402 13.1931 13.826 13.194Z" fill="#4A6585"/>
</svg>
