<svg width="13" height="17" viewBox="0 0 13 17" fill="none" xmlns="http://www.w3.org/2000/svg">
<path d="M11.375 16.5H1.625C1.19745 16.503 0.786213 16.3361 0.48155 16.0362C0.176888 15.7362 0.00369863 15.3276 0 14.9L0 7.68004H13V14.9C12.996 15.3275 12.8228 15.7359 12.5182 16.0359C12.2136 16.3358 11.8025 16.5027 11.375 16.5ZM3.25 9.70004V13.7H4.875V9.70004H3.25ZM0 6.10704V2.10004C0.00369863 1.6725 0.176888 1.26389 0.48155 0.963917C0.786213 0.663942 1.19745 0.497108 1.625 0.500038L11.375 0.508038C11.8042 0.506007 12.217 0.673055 12.524 0.973038C12.675 1.1193 12.7949 1.29447 12.8767 1.4881C12.9585 1.68173 13.0004 1.88985 13 2.10004V6.10004L0 6.10704ZM3.25 2.10004V4.50004H4.875V2.10004H3.25Z" fill="#4A6585"/>
</svg>
